<svg width="1080" height="1080" viewBox="0 0 1080 1080" fill="none" xmlns="http://www.w3.org/2000/svg">
<g opacity="0.6">
<path d="M423.874 386.5C450.342 386.5 471.76 406.982 471.76 432.199C471.76 457.417 450.342 477.898 423.874 477.898C397.405 477.898 375.988 457.417 375.988 432.199C375.988 406.982 397.405 386.5 423.874 386.5Z" fill="#768F6A" stroke="#768F6A"/>
<path d="M656.127 386.5C682.596 386.5 704.014 406.982 704.014 432.199C704.014 457.417 682.596 477.898 656.127 477.898C629.659 477.898 608.241 457.417 608.241 432.199C608.242 406.982 629.659 386.5 656.127 386.5Z" fill="#768F6A" stroke="#768F6A"/>
<path d="M542.489 530.758C627.201 530.758 677.446 564.035 705.944 599.176C719.871 616.349 728.22 633.465 733.107 646.302C735.56 652.742 737.17 658.183 738.185 662.122C738.694 664.094 739.055 665.699 739.301 666.875C739.423 667.463 739.515 667.945 739.584 668.312C739.618 668.496 739.647 668.652 739.669 668.779C739.68 668.841 739.689 668.896 739.697 668.944C739.702 668.968 739.707 668.993 739.71 669.013C739.712 669.023 739.715 669.035 739.716 669.04C739.719 669.054 739.719 669.068 717.993 672.349L739.719 669.067C741.668 680.828 733.262 691.871 720.945 693.731C708.635 695.59 697.075 687.575 695.117 675.826C695.117 675.829 695.119 675.843 695.12 675.85C695.122 675.863 695.124 675.874 695.126 675.883C695.129 675.901 695.131 675.913 695.132 675.919C695.131 675.912 695.128 675.896 695.123 675.871C695.107 675.784 695.07 675.591 695.01 675.299C694.888 674.716 694.67 673.739 694.332 672.427C693.654 669.798 692.497 665.853 690.662 661.034C686.975 651.349 680.662 638.433 670.237 625.578C650.029 600.66 612.807 573.878 542.489 573.877C472.121 573.877 433.45 600.72 411.913 625.987C400.852 638.964 393.95 651.985 389.837 661.728C387.789 666.579 386.461 670.549 385.669 673.197C385.274 674.518 385.013 675.503 384.866 676.094C384.796 676.372 384.749 676.563 384.727 676.659L384.73 676.641C382.3 688.308 370.431 695.894 358.206 693.587C345.972 691.277 338.015 679.936 340.433 668.255L362.537 672.427C340.433 668.255 340.436 668.241 340.439 668.228C340.44 668.223 340.443 668.211 340.445 668.201C340.45 668.181 340.453 668.158 340.458 668.135C340.468 668.088 340.479 668.032 340.493 667.97C340.52 667.845 340.555 667.691 340.597 667.509C340.68 667.145 340.794 666.665 340.94 666.081C341.232 664.912 341.657 663.315 342.244 661.352C343.418 657.431 345.243 652.017 347.949 645.607C353.344 632.828 362.351 615.819 376.886 598.767C406.542 563.975 457.827 530.758 542.489 530.758ZM384.727 676.662C384.724 676.674 384.723 676.686 384.721 676.695C384.717 676.713 384.712 676.723 384.711 676.728C384.713 676.722 384.717 676.703 384.724 676.674C384.725 676.669 384.726 676.664 384.727 676.659V676.662Z" fill="#768F6A"/>
</g>
</svg>
