<svg width="1080" height="1080" viewBox="0 0 1080 1080" fill="none" xmlns="http://www.w3.org/2000/svg">
<path d="M703.248 679.739C709.74 686.23 709.74 696.755 703.248 703.246C696.757 709.738 686.232 709.738 679.741 703.246L376.756 400.261C370.265 393.77 370.265 383.245 376.756 376.754C383.247 370.262 393.772 370.262 400.263 376.754L703.248 679.739Z" fill="#768F6A"/>
<path d="M725.876 725.874C706.888 744.862 676.102 744.861 657.114 725.873L354.129 422.888C335.141 403.9 335.141 373.114 354.129 354.126C373.117 335.138 403.903 335.138 422.891 354.126L725.876 657.111C744.864 676.099 744.864 706.885 725.876 725.874Z" fill="#768F6A"/>
<path d="M376.753 679.739C370.262 686.23 370.262 696.755 376.753 703.246C383.245 709.738 393.77 709.738 400.261 703.246L703.246 400.261C709.737 393.77 709.737 383.245 703.246 376.754C696.755 370.262 686.23 370.262 679.738 376.754L376.753 679.739Z" fill="#768F6A"/>
<path d="M354.126 725.874C373.114 744.862 403.9 744.861 422.888 725.873L725.873 422.888C744.861 403.9 744.861 373.114 725.873 354.126C706.885 335.138 676.099 335.138 657.111 354.126L354.126 657.111C335.138 676.099 335.138 706.885 354.126 725.874Z" fill="#768F6A"/>
</svg>
