<svg width="1080" height="1080" viewBox="0 0 1080 1080" fill="none" xmlns="http://www.w3.org/2000/svg">
<g opacity="0.6">
<path d="M423.874 379.5C450.32 379.5 471.76 400.939 471.76 427.386C471.76 453.833 450.32 475.272 423.874 475.272C397.427 475.272 375.988 453.832 375.988 427.386C375.988 400.939 397.427 379.5 423.874 379.5Z" fill="#768F6A" stroke="#768F6A"/>
<path d="M656.127 379.5C682.574 379.5 704.013 400.939 704.014 427.386C704.014 453.833 682.574 475.272 656.127 475.272C629.68 475.272 608.241 453.832 608.241 427.386C608.241 400.939 629.68 379.5 656.127 379.5Z" fill="#768F6A" stroke="#768F6A"/>
<path d="M537.511 701.579C452.799 701.578 402.554 666.726 374.056 629.922C360.129 611.936 351.78 594.01 346.893 580.566C344.44 573.82 342.83 568.122 341.815 563.996C341.306 561.931 340.945 560.25 340.7 559.019C340.577 558.403 340.485 557.898 340.416 557.513C340.382 557.321 340.353 557.157 340.331 557.025C340.32 556.96 340.311 556.902 340.303 556.852C340.298 556.826 340.293 556.801 340.29 556.779C340.288 556.769 340.285 556.757 340.284 556.751C340.281 556.737 340.281 556.722 362.007 553.286L340.281 556.723C338.332 544.405 346.738 532.84 359.055 530.891C371.365 528.945 382.925 537.339 384.883 549.644C384.883 549.641 384.881 549.626 384.88 549.619C384.878 549.606 384.876 549.594 384.874 549.584C384.871 549.565 384.869 549.553 384.868 549.547C384.869 549.554 384.872 549.571 384.877 549.597C384.893 549.688 384.93 549.89 384.99 550.196C385.112 550.807 385.33 551.83 385.668 553.204C386.346 555.958 387.503 560.089 389.338 565.137C393.025 575.28 399.338 588.807 409.763 602.27C429.971 628.368 467.193 656.418 537.511 656.418C607.879 656.418 646.55 628.305 668.087 601.842C679.148 588.251 686.05 574.613 690.163 564.409C692.211 559.329 693.539 555.171 694.331 552.397C694.726 551.014 694.987 549.983 695.134 549.364C695.204 549.072 695.251 548.872 695.273 548.772L695.27 548.791C697.7 536.571 709.569 528.626 721.794 531.043C734.028 533.461 741.985 545.339 739.567 557.573L717.463 553.204C739.567 557.574 739.564 557.588 739.561 557.601C739.56 557.607 739.557 557.62 739.555 557.63C739.55 557.651 739.547 557.675 739.542 557.699C739.532 557.749 739.521 557.807 739.507 557.872C739.48 558.003 739.445 558.164 739.403 558.354C739.32 558.736 739.206 559.239 739.06 559.851C738.768 561.075 738.343 562.747 737.756 564.803C736.582 568.909 734.757 574.58 732.051 581.294C726.656 594.677 717.649 612.491 703.114 630.351C673.458 666.789 622.173 701.579 537.511 701.579ZM695.273 548.768C695.276 548.755 695.277 548.743 695.279 548.734C695.283 548.715 695.288 548.704 695.289 548.699C695.287 548.706 695.283 548.726 695.276 548.756C695.275 548.761 695.274 548.766 695.273 548.772L695.273 548.768Z" fill="#768F6A"/>
</g>
</svg>
